<?xml version="1.0" standalone="no"?>
<!DOCTYPE svg PUBLIC "-//W3C//DTD SVG 20010904//EN"
 "http://www.w3.org/TR/2001/REC-SVG-20010904/DTD/svg10.dtd">
<svg version="1.0" xmlns="http://www.w3.org/2000/svg"
 width="2880.000000pt" height="2880.000000pt" viewBox="0 0 2880.000000 2880.000000"
 preserveAspectRatio="xMidYMid meet">
<metadata>
Created by potrace 1.11, written by Peter Selinger 2001-2013
</metadata>
<g transform="translate(0.000000,2880.000000) scale(0.100000,-0.100000)"
fill="#000000" stroke="none">
<path d="M6956 18873 c-4 -5 -11 -8 -14 -8 -24 -1 -82 -35 -118 -70 -44 -44
-68 -83 -81 -131 -4 -16 -7 -1536 -8 -3379 l0 -3350 23 -49 c33 -69 98 -129
166 -155 56 -21 67 -21 684 -19 l627 3 46 23 c50 26 119 85 119 101 0 6 5 11
12 11 6 0 8 3 5 7 -4 3 -2 12 4 19 34 41 35 89 34 1628 l0 1518 160 159 c88
87 171 168 185 179 13 12 48 42 76 68 78 72 115 104 164 142 25 19 47 37 50
41 3 3 41 31 85 62 44 31 85 60 90 65 32 25 163 93 240 124 82 33 114 43 185
55 38 7 280 9 280 2 0 -3 21 -6 47 -8 26 -1 49 -4 53 -6 3 -2 25 -6 49 -10
117 -17 272 -91 361 -172 74 -66 165 -213 186 -298 4 -17 9 -34 13 -40 3 -5 6
-14 7 -20 1 -5 5 -23 9 -40 4 -16 11 -52 16 -80 5 -27 12 -63 15 -80 8 -38 15
-968 13 -1590 0 -258 -1 -479 0 -490 0 -11 2 -276 3 -590 l3 -570 24 -45 c34
-65 101 -125 166 -149 55 -21 71 -21 658 -21 410 1 616 4 647 12 60 15 130 62
160 107 14 20 29 39 35 43 5 4 6 8 2 8 -4 0 -3 9 3 21 6 11 14 30 16 42 8 34
7 3017 -1 3162 -9 172 -12 213 -18 255 -5 33 -20 143 -22 165 -1 6 -5 28 -10
50 -4 22 -9 46 -11 54 -18 94 -35 157 -71 276 -15 50 -27 93 -28 97 0 4 -6 13
-12 20 -7 6 -13 22 -13 33 0 12 -3 25 -7 29 -5 4 -8 11 -8 14 -1 4 -9 22 -18
40 -10 17 -14 32 -10 32 5 0 4 4 -2 8 -5 4 -26 38 -45 76 -36 70 -130 222
-166 265 -70 85 -102 122 -148 167 -52 51 -133 123 -180 159 -14 11 -35 28
-47 37 -12 10 -45 32 -73 50 -28 18 -53 36 -54 40 -2 5 -8 6 -13 2 -5 -3 -9
-2 -9 3 0 4 -15 14 -32 22 -18 8 -35 17 -38 21 -7 10 -146 75 -226 105 -38 15
-78 31 -89 36 -16 7 -118 38 -147 45 -5 1 -9 2 -10 4 -2 1 -12 3 -22 5 -11 2
-51 11 -90 19 -39 9 -87 18 -106 20 -19 3 -51 7 -70 11 -19 3 -58 8 -87 9 -28
2 -55 6 -60 9 -11 6 -445 1 -503 -6 -25 -3 -65 -9 -90 -12 -25 -3 -54 -8 -64
-11 -10 -4 -33 -7 -50 -9 -17 -1 -51 -8 -76 -15 -25 -6 -53 -14 -62 -15 -32
-6 -173 -47 -198 -58 -14 -5 -29 -11 -35 -12 -41 -10 -265 -106 -318 -136 -10
-5 -46 -24 -80 -41 -34 -18 -68 -38 -75 -45 -7 -7 -18 -13 -23 -13 -5 0 -54
-30 -110 -67 -55 -38 -108 -72 -117 -78 -9 -5 -19 -12 -22 -15 -3 -3 -32 -25
-65 -49 -33 -25 -62 -47 -65 -51 -6 -7 -81 -65 -95 -72 -7 -4 -10 335 -10
1032 -1 854 -3 1040 -14 1054 -7 9 -11 16 -7 16 13 0 -33 76 -67 111 -20 20
-57 47 -84 60 l-48 24 -636 3 c-349 1 -639 -1 -643 -5z"/>
<path d="M2609 17286 c-3 -3 -39 -8 -80 -11 -40 -3 -90 -8 -109 -11 -19 -3
-51 -7 -70 -10 -83 -10 -116 -14 -136 -18 -12 -2 -39 -7 -60 -11 -46 -8 -69
-13 -69 -15 0 -1 -9 -3 -20 -4 -32 -4 -112 -21 -117 -25 -2 -2 -14 -5 -28 -8
-39 -7 -38 -7 -165 -48 -66 -21 -122 -39 -125 -40 -3 -1 -18 -7 -35 -14 -40
-17 -79 -32 -82 -32 -4 0 -188 -89 -203 -99 -8 -5 -36 -21 -62 -34 -46 -24
-236 -149 -275 -180 -187 -151 -368 -333 -443 -447 -8 -12 -23 -31 -32 -41
-10 -10 -18 -22 -18 -28 0 -5 -3 -10 -8 -10 -4 0 -12 -9 -17 -19 -6 -11 -38
-67 -72 -124 -64 -108 -129 -236 -125 -249 1 -5 -2 -8 -8 -8 -6 0 -9 -3 -8 -7
0 -5 -3 -17 -7 -28 -66 -161 -145 -423 -161 -535 -3 -19 -7 -43 -10 -52 -9
-30 -24 -133 -39 -258 -26 -217 -26 -730 -1 -950 15 -124 26 -198 43 -275 8
-38 16 -79 18 -90 1 -11 8 -42 15 -70 6 -27 13 -55 14 -62 1 -7 5 -16 9 -19 4
-4 7 -15 7 -24 0 -20 36 -138 50 -162 6 -10 10 -25 10 -33 0 -8 4 -23 9 -33
15 -27 51 -111 51 -118 0 -8 89 -184 113 -224 12 -19 22 -40 23 -47 1 -7 8
-19 16 -27 7 -7 18 -22 25 -32 58 -88 94 -139 142 -198 73 -90 264 -286 279
-286 7 0 12 -4 12 -9 0 -13 170 -140 283 -211 106 -66 325 -180 377 -195 3 -1
21 -8 41 -17 20 -9 47 -19 60 -22 13 -4 33 -11 44 -16 26 -12 225 -72 245 -75
8 -1 22 -4 30 -8 8 -3 29 -8 45 -11 17 -2 53 -9 80 -16 28 -6 64 -14 80 -16
17 -2 41 -6 55 -9 23 -5 86 -14 150 -20 14 -2 25 -4 25 -5 0 -2 34 -5 165 -16
112 -10 762 -10 915 0 216 14 280 19 365 31 19 2 58 7 85 10 28 3 59 7 70 9
11 2 45 7 75 11 30 4 64 9 75 12 31 6 58 12 85 17 14 2 66 14 115 26 50 12 97
23 105 25 8 2 27 8 42 14 16 6 28 9 28 6 0 -2 37 10 83 27 45 16 91 32 102 35
28 8 209 95 275 133 177 102 341 268 433 442 34 63 90 208 103 266 10 48 12
122 2 122 -5 0 -7 4 -4 8 6 9 -37 76 -76 121 -47 52 -197 141 -263 156 -5 1
-17 5 -25 8 -18 7 -71 21 -85 22 -5 1 -19 4 -30 8 -11 3 -45 9 -75 12 -30 3
-62 8 -70 10 -8 3 -40 7 -70 10 -30 4 -68 8 -85 10 -63 10 -275 26 -330 25
-26 0 -108 -9 -147 -16 -24 -4 -46 -8 -50 -8 -3 -1 -10 -4 -14 -8 -4 -5 -15
-8 -25 -8 -21 0 -90 -37 -101 -54 -4 -6 -8 -8 -8 -4 0 7 -51 -43 -99 -98 -32
-36 -125 -101 -196 -136 -116 -58 -296 -102 -475 -115 -152 -11 -418 -5 -515
11 -16 3 -46 7 -65 10 -84 11 -222 47 -277 72 -17 8 -34 14 -38 14 -14 0 -82
36 -149 78 -129 82 -221 184 -299 332 -40 75 -89 197 -102 255 -47 201 -50
217 -60 331 -5 56 -4 62 15 67 11 3 20 1 20 -3 0 -5 13 -5 29 0 15 4 33 5 40
1 6 -4 33 -5 60 -1 27 3 58 3 70 -1 11 -5 23 -4 25 0 3 5 24 5 46 1 22 -4 40
-5 40 -1 0 7 68 6 75 -1 2 -2 29 -1 60 2 30 3 55 3 55 -1 0 -4 13 -4 29 1 15
4 34 4 40 0 7 -4 29 -4 50 0 20 4 46 3 57 0 10 -4 23 -5 28 -2 6 3 28 5 50 4
23 -1 57 -1 76 -1 38 0 60 -1 88 -2 9 -1 28 -1 42 0 14 1 34 1 45 1 11 0 50 0
87 1 37 0 71 -2 77 -5 5 -4 12 -2 15 3 3 4 24 5 46 1 22 -4 40 -5 40 -1 0 7
68 6 75 -1 3 -3 24 -2 48 2 24 3 54 3 68 0 13 -4 33 -4 44 0 11 4 34 4 52 -1
18 -4 33 -4 33 0 0 3 16 6 35 6 19 0 35 -4 35 -8 0 -5 4 -6 9 -3 5 4 33 6 63
6 29 0 61 0 71 0 9 0 44 0 77 1 34 1 63 -1 67 -4 3 -3 15 -2 27 2 11 5 30 5
41 1 11 -4 33 -4 50 0 17 4 41 3 53 -1 12 -5 24 -4 26 0 3 5 24 5 46 1 22 -4
40 -5 40 -1 0 7 68 6 75 -1 2 -2 29 -1 60 2 30 3 55 3 55 -1 0 -4 13 -4 29 1
15 4 34 4 40 0 7 -4 29 -4 50 0 20 4 46 3 57 0 10 -4 23 -5 28 -2 6 3 28 5 50
4 23 -1 57 -1 76 -1 38 0 60 -1 88 -2 9 -1 28 -1 42 0 14 1 34 1 45 1 11 0 50
0 87 1 37 0 71 -2 77 -5 5 -4 12 -2 15 3 3 4 24 5 46 1 22 -4 40 -5 40 -1 0 7
68 6 75 -1 2 -2 29 -1 59 2 30 3 64 3 75 -2 11 -4 23 -3 25 1 3 5 24 5 46 1
22 -4 40 -5 40 -1 0 3 17 5 37 4 21 -1 38 -2 38 -3 0 -1 24 -2 53 -3 28 -1 52
0 52 3 0 3 22 6 49 6 52 2 141 30 141 45 0 5 5 9 12 9 15 0 74 67 92 105 8 17
19 57 24 90 10 63 8 512 -2 625 -3 36 -8 94 -11 130 -7 82 -9 92 -18 107 -4 6
-3 14 3 18 6 4 7 12 3 18 -4 6 -8 21 -9 33 -3 25 -11 78 -19 114 -6 30 -28
133 -30 140 -1 3 -5 19 -9 35 -4 17 -12 50 -19 75 -6 25 -12 47 -13 50 0 3 -3
12 -7 20 -3 8 -19 56 -36 105 -16 50 -37 107 -46 127 -8 21 -15 40 -15 43 0 3
-16 35 -35 72 -19 37 -35 73 -35 80 0 7 -4 13 -10 13 -5 0 -10 4 -10 9 0 15
-109 198 -125 211 -8 7 -15 17 -15 22 0 20 -130 175 -240 286 -109 111 -139
137 -235 211 -22 17 -45 35 -51 40 -6 4 -37 26 -70 47 -32 22 -60 42 -62 47
-2 4 -10 7 -18 7 -8 0 -23 9 -34 20 -11 11 -22 20 -25 19 -3 0 -43 19 -88 42
-45 24 -85 44 -89 44 -4 0 -13 6 -20 13 -6 6 -18 12 -25 12 -7 0 -21 5 -31 10
-18 11 -160 70 -177 74 -5 1 -39 12 -75 23 -143 47 -324 92 -430 109 -19 3
-46 7 -60 10 -14 2 -43 6 -65 9 -22 3 -51 7 -65 10 -25 5 -107 13 -215 22
-112 9 -620 11 -637 2 -10 -6 -18 -5 -20 2 -2 6 -6 8 -9 5z m487 -1140 c38 -4
76 -9 84 -11 8 -3 29 -7 45 -9 245 -39 471 -175 610 -371 34 -47 114 -187 114
-198 0 -1 5 -15 11 -32 19 -50 60 -196 60 -214 0 -10 3 -21 7 -24 3 -4 7 -22
9 -39 1 -18 5 -51 9 -73 3 -22 8 -76 11 -120 l6 -80 -1144 1 c-628 1 -1149 2
-1157 3 -10 1 -12 17 -7 74 3 39 8 86 10 102 3 17 7 46 9 66 3 20 7 41 10 46
3 5 8 27 10 48 3 22 10 52 16 68 6 15 9 27 6 27 -2 0 9 30 24 68 15 37 29 72
30 77 5 22 64 131 101 185 34 50 134 157 183 197 77 62 255 148 347 168 8 2
38 9 65 15 68 15 96 19 190 26 44 4 81 7 82 8 5 4 194 -2 259 -8z"/>
<path d="M21926 17283 c-2 -2 -48 -6 -102 -8 -55 -3 -124 -7 -154 -10 -226
-21 -240 -22 -280 -30 -19 -4 -52 -8 -72 -8 -21 -1 -38 -4 -38 -7 0 -3 -10 -5
-22 -6 -38 -1 -118 -14 -217 -35 -145 -32 -135 -29 -226 -54 -33 -9 -67 -18
-75 -20 -38 -9 -176 -58 -187 -67 -7 -6 -13 -8 -13 -5 0 7 -211 -86 -259 -115
-77 -45 -197 -124 -226 -148 -43 -37 -167 -163 -190 -194 -11 -14 -26 -33 -33
-41 -28 -31 -94 -154 -122 -227 -36 -93 -42 -148 -22 -208 50 -149 201 -244
472 -295 14 -3 50 -10 80 -16 30 -6 73 -13 95 -15 54 -7 80 -11 80 -14 0 -2
20 -5 100 -14 33 -4 74 -9 90 -11 103 -16 397 -11 471 8 54 14 109 32 114 37
3 3 21 16 40 28 20 11 50 39 68 61 77 96 270 208 407 237 6 1 21 4 35 7 14 3
36 8 50 11 86 19 206 29 365 29 122 0 271 -9 305 -18 8 -2 37 -6 64 -10 27 -3
53 -8 57 -10 4 -3 24 -7 45 -11 22 -3 61 -14 88 -25 27 -10 52 -16 57 -14 4 3
10 -2 13 -11 4 -9 9 -14 12 -11 6 6 83 -29 94 -42 3 -3 17 -12 32 -20 28 -14
138 -120 138 -132 0 -4 6 -14 13 -21 16 -17 89 -158 82 -158 -3 0 0 -10 7 -22
7 -13 11 -29 9 -36 -1 -8 2 -19 7 -25 5 -7 13 -30 17 -52 5 -22 10 -47 11 -55
2 -8 6 -33 8 -55 3 -22 6 -40 7 -40 0 0 3 -18 4 -40 2 -22 4 -40 5 -40 1 0 2
-42 4 -93 2 -61 -1 -95 -8 -98 -6 -2 -450 -5 -986 -7 -536 -3 -991 -7 -1010
-10 -19 -3 -66 -8 -105 -12 -71 -6 -105 -11 -140 -18 -11 -3 -40 -8 -65 -11
-25 -3 -54 -8 -65 -10 -19 -4 -148 -32 -188 -41 -29 -6 -190 -55 -212 -64 -11
-4 -69 -27 -130 -51 -360 -140 -677 -378 -846 -635 -87 -133 -168 -310 -193
-426 -3 -13 -13 -55 -21 -94 -9 -38 -17 -91 -19 -116 -2 -26 -6 -50 -8 -55 -7
-12 -2 -386 6 -444 16 -120 60 -292 95 -375 54 -126 160 -313 184 -323 4 -2 7
-7 7 -11 0 -23 198 -223 285 -288 33 -24 71 -53 85 -64 13 -10 28 -19 33 -19
4 0 17 -9 29 -20 12 -10 25 -17 30 -14 4 3 8 1 8 -3 0 -9 26 -24 165 -98 125
-66 440 -182 515 -189 9 -1 20 -5 25 -8 6 -4 30 -9 55 -13 25 -4 48 -8 51 -11
10 -6 81 -18 112 -18 15 -1 27 -4 27 -8 0 -4 8 -6 18 -6 9 0 37 -3 62 -6 66
-11 195 -23 315 -31 70 -5 414 -5 465 -1 19 2 71 7 115 10 80 7 89 8 175 21
49 8 57 9 140 26 94 18 103 20 110 24 4 2 20 7 36 9 53 10 68 14 178 50 134
43 300 108 304 118 2 5 12 8 22 8 9 0 23 7 30 15 7 9 19 14 26 11 7 -3 15 -2
18 2 3 5 31 21 63 37 32 16 65 34 73 40 8 7 35 23 60 36 25 13 49 27 55 32 34
26 85 55 85 49 0 -4 4 -2 8 4 4 5 24 23 45 38 l37 28 1 -88 c1 -49 2 -93 4
-99 1 -5 3 -24 3 -40 2 -33 70 -157 83 -150 4 3 9 -2 12 -10 4 -8 30 -27 59
-42 l53 -28 570 0 c561 0 571 0 615 21 98 47 160 140 166 247 1 32 5 61 7 64
3 2 1 18 -3 34 -5 16 -6 29 -2 29 4 0 6 26 4 57 -1 32 -3 64 -2 71 0 6 0 19 0
27 0 8 0 22 0 30 0 8 0 22 0 30 0 8 0 22 0 30 0 8 0 22 0 30 0 8 0 22 0 30 0
8 0 22 0 30 0 8 0 22 0 30 0 8 0 22 0 30 0 8 0 22 0 30 0 8 0 22 0 30 0 8 0
22 0 30 0 8 0 22 0 30 0 8 0 22 0 30 0 8 0 22 0 30 0 8 0 22 0 30 0 8 0 22 0
30 0 8 0 22 0 30 0 8 0 22 0 30 0 8 0 21 0 28 -1 6 1 31 2 55 2 23 0 42 -4 42
-4 0 -3 14 2 30 5 17 5 30 0 30 -5 0 -5 13 0 30 5 17 5 30 0 30 -5 0 -5 13 0
30 5 17 5 30 0 30 -5 0 -5 13 0 30 5 17 5 30 0 30 -5 0 -5 13 0 30 5 17 6 30
2 30 -4 0 -7 16 -7 35 0 19 3 35 7 35 4 0 3 14 -2 30 -5 17 -5 30 0 30 4 0 5
12 1 27 -4 16 -4 44 -1 65 4 20 4 42 -1 49 -4 7 -4 20 1 29 5 9 5 22 0 30 -5
8 -5 21 0 30 5 9 5 22 0 30 -5 8 -5 21 0 30 5 9 5 22 0 30 -5 8 -5 21 0 30 5
9 5 22 0 30 -5 8 -5 21 0 30 5 9 5 22 0 30 -5 8 -5 21 0 30 5 9 5 22 0 30 -5
8 -5 21 0 30 5 9 5 22 0 30 -5 8 -5 21 0 30 5 9 5 22 0 30 -5 8 -5 21 0 30 5
9 5 22 0 30 -5 8 -5 21 0 30 5 9 5 22 0 30 -5 8 -6 18 -3 23 8 13 9 87 1 87
-4 0 -3 14 2 30 5 17 5 30 0 30 -5 0 -5 13 0 30 5 17 5 30 0 30 -5 0 -5 13 0
30 5 17 5 30 0 30 -5 0 -5 13 0 30 5 17 5 30 0 30 -5 0 -5 13 0 30 5 17 6 30
2 30 -4 0 -7 16 -7 35 0 19 3 35 7 35 4 0 3 14 -2 30 -5 19 -5 30 1 30 6 0 7
4 4 10 -8 13 -11 108 -3 115 3 4 2 19 -2 35 -4 16 -6 31 -3 34 8 8 9 146 1
146 -4 0 -3 12 1 28 5 15 5 37 0 49 -4 12 -4 25 1 28 5 3 5 18 0 34 -4 15 -4
34 0 42 5 7 7 16 4 20 -2 4 -7 52 -9 105 -3 54 -8 116 -10 138 -13 100 -17
133 -19 157 -2 14 -6 31 -10 37 -4 7 -5 16 -1 21 3 5 1 12 -5 16 -6 4 -8 10
-6 14 3 4 1 25 -5 46 -11 37 -15 58 -25 104 -3 13 -9 32 -15 43 -5 10 -7 18
-3 18 3 0 2 6 -3 13 -6 6 -13 24 -17 39 -3 15 -11 40 -18 55 -6 15 -12 30 -13
33 -5 16 -28 69 -41 94 -8 16 -14 35 -14 43 0 7 -4 13 -8 13 -5 0 -14 16 -22
35 -8 19 -17 35 -22 35 -4 0 -8 6 -8 13 0 13 -73 126 -128 197 -52 66 -250
260 -302 295 -25 17 -53 37 -63 46 -10 9 -33 25 -52 35 -19 10 -35 22 -35 26
0 5 -6 8 -14 8 -8 0 -21 6 -28 13 -7 7 -42 29 -78 47 -36 19 -68 38 -71 43 -3
5 -9 8 -12 8 -4 0 -28 9 -54 21 -27 12 -50 22 -53 23 -3 0 -21 8 -40 17 -72
35 -266 104 -319 114 -14 3 -28 7 -33 10 -4 3 -16 7 -25 9 -10 2 -56 12 -103
24 -47 11 -96 22 -110 25 -14 2 -52 9 -85 15 -134 24 -138 24 -270 37 -38 4
-80 7 -92 8 -13 0 -23 3 -23 8 0 4 -10 4 -22 -1 -13 -5 -32 -5 -44 -1 -20 8
-700 10 -708 3z m1307 -3320 c4 -7 5 -18 2 -23 -3 -6 -1 -10 6 -10 7 0 8 -4 2
-12 -5 -7 -8 -172 -8 -369 l1 -356 -49 -29 c-126 -74 -279 -154 -295 -154 -6
0 -12 -4 -14 -8 -7 -19 -310 -131 -450 -168 -5 -1 -9 -2 -10 -4 -2 -1 -10 -3
-18 -5 -8 -1 -49 -10 -91 -20 -42 -9 -87 -18 -100 -20 -13 -2 -40 -6 -60 -9
-224 -40 -541 -38 -701 4 -80 22 -173 63 -232 104 -55 38 -78 59 -140 128 -28
32 -94 161 -100 198 -3 14 -5 25 -6 25 -1 0 -3 14 -6 30 -12 80 -2 231 17 268
5 9 8 17 5 17 -9 0 36 94 66 138 107 157 291 254 523 278 33 4 61 7 62 8 1 1
358 1 795 1 636 1 795 -2 801 -12z"/>
<path d="M13415 17189 c-64 -9 -93 -21 -133 -54 -64 -54 -107 -166 -79 -202 5
-7 6 -13 2 -13 -4 0 -2 -7 5 -15 7 -8 10 -15 7 -15 -3 0 6 -35 19 -77 14 -43
27 -85 29 -93 2 -8 15 -51 29 -95 13 -44 41 -134 61 -200 20 -66 39 -127 42
-135 3 -8 7 -21 9 -27 1 -7 11 -41 22 -75 11 -35 32 -103 47 -153 15 -49 40
-130 55 -180 16 -49 45 -144 65 -210 20 -66 41 -133 48 -149 6 -17 12 -37 12
-45 1 -14 37 -130 52 -171 3 -8 7 -22 9 -30 2 -8 15 -49 29 -90 14 -41 27 -84
29 -95 2 -11 4 -20 5 -20 2 0 4 -8 7 -17 6 -27 10 -41 16 -58 4 -8 16 -49 28
-90 22 -72 41 -136 111 -360 18 -58 34 -109 35 -115 1 -5 14 -48 29 -95 15
-47 29 -92 30 -100 2 -8 4 -16 5 -17 2 -2 3 -6 4 -10 4 -16 68 -219 73 -233 4
-8 7 -17 8 -20 8 -33 82 -244 99 -285 7 -16 26 -61 42 -100 33 -79 116 -246
160 -319 95 -157 210 -327 226 -334 4 -2 8 -8 8 -13 0 -10 130 -183 142 -187
4 -2 8 -8 8 -13 0 -5 8 -17 18 -28 9 -10 24 -28 32 -39 66 -88 203 -231 300
-312 36 -30 67 -58 70 -61 12 -15 191 -129 250 -160 36 -19 68 -38 71 -42 3
-5 9 -8 12 -8 4 0 28 -9 54 -20 48 -21 194 -76 223 -84 8 -3 88 -19 178 -37
l162 -33 -6 -30 c-6 -29 -73 -175 -85 -185 -3 -3 -8 -13 -12 -23 -18 -50 -132
-202 -205 -274 -46 -46 -87 -83 -92 -83 -5 0 -15 -7 -24 -15 -36 -37 -185
-102 -271 -120 -124 -25 -170 -25 -340 1 -22 4 -53 8 -70 9 -16 2 -50 6 -75 9
-70 10 -111 16 -169 22 -30 3 -64 8 -75 11 -12 3 -95 7 -186 9 -142 3 -172 1
-217 -15 -53 -20 -143 -93 -143 -118 0 -7 -4 -13 -8 -13 -18 0 -36 -81 -39
-175 -3 -133 -4 -171 -2 -295 1 -36 1 -71 0 -77 -20 -351 60 -431 511 -513 54
-10 84 -14 183 -26 297 -33 1135 -40 1292 -10 11 3 38 7 58 10 84 14 298 74
328 93 6 4 17 8 24 9 20 3 202 94 208 104 4 6 11 8 16 5 5 -4 9 -2 9 2 0 5 20
19 45 33 25 14 45 28 45 32 0 5 6 8 14 8 8 0 16 3 18 8 2 4 23 23 48 42 70 54
77 61 148 131 68 66 153 162 181 202 8 12 23 31 33 41 10 11 18 23 18 27 0 4
6 14 13 21 21 23 77 108 77 118 0 5 6 15 14 23 8 7 27 37 43 66 15 28 41 75
57 104 41 75 138 272 142 287 1 7 20 52 42 103 11 23 27 65 37 92 10 28 23 56
28 63 5 6 7 12 3 12 -4 0 0 12 8 28 17 34 153 438 160 478 3 16 10 40 15 54 6
14 16 45 22 70 7 25 13 47 14 50 1 3 7 25 15 50 7 25 15 52 17 60 1 8 28 103
58 210 31 107 58 206 61 220 9 37 10 44 17 60 17 44 55 195 51 202 -3 4 -1 8
4 8 5 0 9 6 9 13 0 6 15 62 32 122 18 61 34 117 36 125 2 8 22 80 45 160 23
80 43 152 45 160 4 18 23 89 65 235 17 61 33 119 35 129 2 10 10 35 17 55 6
20 13 43 14 51 1 8 14 56 28 105 14 50 28 97 30 105 2 8 14 51 26 95 12 44 23
84 24 90 1 5 5 16 9 23 5 6 6 12 3 12 -3 0 -1 12 5 28 6 15 12 34 14 42 2 8
16 58 31 110 14 52 27 100 28 105 1 6 5 16 9 23 5 6 6 12 2 12 -3 0 1 16 9 35
8 19 13 35 10 35 -2 0 2 16 10 35 8 19 13 35 11 35 -3 0 0 12 6 28 6 15 13 38
15 52 3 14 7 32 11 40 3 8 7 20 8 25 7 29 87 322 92 335 3 8 7 20 8 25 2 6 8
30 16 55 7 25 13 50 15 56 1 6 10 38 19 70 10 33 18 64 20 69 1 6 5 17 8 25 3
8 10 35 16 60 7 25 14 52 16 60 2 8 18 65 35 125 17 61 37 133 45 160 7 28 30
109 50 180 20 72 38 137 40 145 2 8 10 36 18 63 8 26 13 47 10 47 -3 0 0 7 7
15 7 8 10 15 7 15 -2 0 7 37 20 83 14 45 26 90 26 100 1 9 4 17 7 17 7 0 7 1
14 84 4 60 -2 82 -42 146 -28 47 -70 77 -124 90 -29 7 -233 10 -633 8 -576 -3
-591 -3 -635 -24 -99 -46 -177 -115 -227 -202 -20 -34 -68 -172 -87 -252 -8
-31 -35 -127 -55 -195 -24 -80 -29 -97 -35 -124 -3 -11 -21 -77 -41 -148 -21
-70 -38 -135 -40 -143 -2 -8 -11 -37 -20 -64 -9 -27 -19 -61 -21 -75 -3 -14
-9 -41 -15 -59 -6 -18 -12 -39 -13 -45 -2 -7 -6 -19 -9 -27 -3 -8 -24 -82 -47
-165 -22 -82 -50 -179 -60 -215 -27 -90 -62 -213 -65 -225 -1 -5 -7 -30 -14
-55 -7 -25 -13 -46 -12 -47 0 -2 -6 -21 -14 -44 -9 -23 -17 -51 -20 -63 -7
-34 -11 -50 -75 -271 -33 -115 -69 -241 -79 -280 -11 -38 -45 -158 -76 -265
-55 -190 -61 -211 -69 -247 -2 -10 -16 -58 -31 -108 -14 -49 -28 -97 -30 -105
-2 -8 -22 -80 -45 -160 -23 -80 -47 -164 -52 -188 l-10 -43 -64 3 c-35 2 -64
5 -64 8 0 3 -8 6 -17 7 -64 5 -174 50 -253 101 -70 46 -215 191 -257 257 -18
28 -36 55 -41 60 -31 37 -165 307 -212 425 -11 30 -25 64 -30 75 -16 33 -92
247 -105 295 -3 8 -16 49 -30 90 -15 41 -28 84 -31 95 -7 28 -10 38 -17 55 -7
18 -48 151 -51 165 -5 20 -38 130 -43 145 -4 8 -7 18 -8 23 -2 4 -3 8 -5 10
-1 1 -3 9 -5 17 -1 8 -22 76 -45 150 -23 74 -53 173 -67 220 -13 47 -28 94
-33 105 -4 11 -22 67 -39 125 -30 98 -82 268 -118 385 -158 512 -195 632 -197
640 -9 39 -41 123 -52 136 -8 8 -14 20 -14 25 0 10 -81 96 -119 127 -28 23
-133 76 -163 83 -58 14 -1028 25 -1123 13z"/>
<path d="M27470 16962 c0 -4 -20 -7 -45 -7 -37 1 -93 -9 -275 -48 -8 -2 -22
-6 -30 -10 -8 -3 -40 -16 -70 -27 -209 -77 -433 -252 -566 -440 -21 -30 -41
-57 -44 -60 -15 -15 -107 -198 -115 -230 0 -3 -13 -41 -27 -85 -15 -44 -29
-96 -32 -115 -3 -19 -8 -48 -12 -65 -3 -16 -7 -58 -8 -91 -2 -34 -6 -67 -10
-72 -3 -6 -2 -13 4 -17 7 -4 7 -12 0 -26 -6 -10 -7 -19 -3 -19 4 0 9 -26 9
-58 2 -76 8 -123 29 -205 9 -37 18 -73 19 -80 8 -38 76 -197 98 -229 10 -14
18 -29 18 -32 0 -23 150 -221 204 -269 12 -10 41 -37 66 -60 25 -23 56 -50 70
-60 110 -76 208 -133 223 -129 4 1 7 -2 7 -8 0 -5 7 -10 15 -10 8 0 23 -4 33
-9 52 -27 129 -52 197 -66 17 -3 58 -12 91 -19 37 -7 123 -11 210 -10 139 1
179 5 244 20 14 3 36 7 50 9 14 1 63 17 110 35 47 17 91 32 98 32 6 1 12 5 12
10 0 4 6 8 13 8 27 0 197 104 281 172 64 52 163 157 206 218 14 19 27 37 30
40 27 25 145 251 154 295 3 11 12 40 20 64 9 25 18 56 21 70 3 14 7 37 10 51
15 65 17 94 20 221 4 172 -25 355 -74 474 -36 88 -59 135 -78 167 -13 21 -23
42 -23 48 0 5 -4 10 -10 10 -5 0 -10 5 -10 12 0 16 -105 153 -161 209 -141
140 -284 234 -474 310 -125 49 -354 90 -430 76 -11 -3 -30 0 -42 4 -13 5 -23
5 -23 1z"/>
</g>
</svg>
