<svg width="26" height="25" viewBox="0 0 26 25" fill="none" xmlns="http://www.w3.org/2000/svg">
<path d="M23.5 9.875H15.625V2C15.625 1.07031 14.8047 0.25 13.875 0.25H12.125C11.1406 0.25 10.375 1.07031 10.375 2V9.875H2.5C1.51562 9.875 0.75 10.6953 0.75 11.625V13.375C0.75 14.3594 1.51562 15.125 2.5 15.125H10.375V23C10.375 23.9844 11.1406 24.75 12.125 24.75H13.875C14.8047 24.75 15.625 23.9844 15.625 23V15.125H23.5C24.4297 15.125 25.25 14.3594 25.25 13.375V11.625C25.25 10.6953 24.4297 9.875 23.5 9.875Z" fill="white"/>
</svg>
