<svg width="26" height="26" viewBox="0 0 26 26" fill="none" xmlns="http://www.w3.org/2000/svg">
<g opacity="0.2">
<rect x="1" y="1" width="24" height="24" rx="8" stroke="#1565D8" stroke-width="0.5"/>
</g>
<path fill-rule="evenodd" clip-rule="evenodd" d="M18.1351 8.95676L13.0951 7.13676C13.0336 7.11457 12.9664 7.11457 12.9049 7.13676L7.8649 8.95676C7.75394 8.99683 7.68 9.10215 7.68 9.22012V13.0001C7.68 15.9684 9.45275 17.9382 12.9274 18.8706C12.9756 18.8835 13.0263 18.8833 13.0744 18.87C16.5479 17.9125 18.32 15.9436 18.32 13.0001V9.22012C18.32 9.10215 18.2461 8.99683 18.1351 8.95676ZM11.067 12.5103C11.179 12.4037 11.3562 12.4081 11.4628 12.5202L12.5955 13.7105L14.9741 11.1303C15.0789 11.0166 15.2561 11.0094 15.3698 11.1142C15.4835 11.2191 15.4907 11.3962 15.3859 11.5099L12.8046 14.3099C12.6949 14.4289 12.5075 14.4304 12.3959 14.3131L11.0572 12.9062C10.9506 12.7942 10.955 12.6169 11.067 12.5103Z" fill="#1565D8"/>
</svg>
