<svg width="25" height="26" viewBox="0 0 25 26" fill="none" xmlns="http://www.w3.org/2000/svg">
<g opacity="0.2">
<rect x="1" y="1" width="23" height="24" rx="8" stroke="#1565D8" stroke-width="0.5"/>
</g>
<path fill-rule="evenodd" clip-rule="evenodd" d="M9.64647 11.4957C10.3518 10.4499 10.792 9.24981 10.9686 7.89119C10.9854 7.76177 11.0732 7.65415 11.1937 7.61524C12.4083 7.22301 13.0989 7.84628 13.0875 9.26748C13.0852 9.54335 13.073 9.78855 13.0471 10.1636C12.9891 11.0013 12.9937 11.2299 13.0835 11.3837C13.1699 11.5315 13.4504 11.582 14.1138 11.4506C14.3231 11.4091 14.5331 11.3621 14.7657 11.3057C14.8683 11.2808 15.6078 11.0925 15.7968 11.0499C16.1574 10.9686 16.4162 10.9343 16.6437 10.9488C17.26 10.9883 17.587 11.4023 17.6436 12.1957C17.7431 13.5927 17.4356 16.399 17.1288 17.4326C16.8153 18.4889 16.2685 18.8876 14.9562 18.9117C14.1124 18.9271 12.8147 18.9271 11.0569 18.9116C10.6082 18.9007 10.2016 18.8101 9.83986 18.6406C9.94139 18.4212 9.99825 18.1755 9.99825 17.916V12.54C9.99825 12.1453 9.86669 11.7825 9.64647 11.4957Z" fill="#1565D8"/>
<path opacity="0.3" fill-rule="evenodd" clip-rule="evenodd" d="M7.72448 11.532C7.18629 11.532 6.75001 11.9833 6.75001 12.54V17.916C6.75001 18.4727 7.18629 18.924 7.72448 18.924H8.37413C8.91232 18.924 9.3486 18.4727 9.3486 17.916V12.54C9.3486 11.9833 8.91232 11.532 8.37413 11.532H7.72448Z" fill="#1565D8"/>
</svg>
