<svg width="14" height="13" viewBox="0 0 14 13" fill="none" xmlns="http://www.w3.org/2000/svg">
<path d="M12.375 7.57812L13.4766 2.70312C13.5469 2.35156 13.2891 2 12.9141 2H3.72656L3.51562 0.96875C3.44531 0.710938 3.21094 0.5 2.95312 0.5H0.5625C0.234375 0.5 0 0.757812 0 1.0625V1.4375C0 1.76562 0.234375 2 0.5625 2H2.17969L3.84375 10.0625C3.44531 10.2969 3.1875 10.7188 3.1875 11.1875C3.1875 11.9141 3.77344 12.5 4.5 12.5C5.20312 12.5 5.8125 11.9141 5.8125 11.1875C5.8125 10.8359 5.64844 10.5078 5.41406 10.25H10.3125C10.0781 10.5078 9.9375 10.8359 9.9375 11.1875C9.9375 11.9141 10.5234 12.5 11.25 12.5C11.9531 12.5 12.5625 11.9141 12.5625 11.1875C12.5625 10.6719 12.2578 10.2266 11.8125 10.0156L11.9297 9.45312C12.0234 9.10156 11.7422 8.75 11.3906 8.75H5.10938L4.94531 8H11.8125C12.0703 8 12.3047 7.83594 12.375 7.57812Z" fill="#1565D8"/>
</svg>
