<svg width="26" height="26" viewBox="0 0 26 26" fill="none" xmlns="http://www.w3.org/2000/svg">
<g opacity="0.2">
<rect x="1" y="1" width="24" height="24" rx="8" stroke="#1565D8" stroke-width="0.5"/>
</g>
<path fill-rule="evenodd" clip-rule="evenodd" d="M13.4419 14.0786C13.7902 13.3219 13.4692 12.6984 12.5824 12.3123L11.1133 11.7057C10.6374 11.5092 10.0921 11.5902 9.69364 11.9165L8.34258 13.0232L8.30328 13.4172L8.23999 16.6399V17.1999H9.87463L13.2084 18.1471C13.629 18.2666 14.0812 18.1825 14.4307 17.9197C16.6274 16.2686 18.0951 15.1537 18.3173 14.9471C18.8562 14.4461 19.0683 13.889 18.6844 13.3399C18.374 12.896 17.8507 12.8487 17.202 13.1424L14.0471 14.7469L13.1599 14.4648C13.2743 14.3662 13.3686 14.2378 13.4419 14.0786Z" fill="#1565D8"/>
<path opacity="0.3" fill-rule="evenodd" clip-rule="evenodd" d="M16.4737 8.24055H15.8V8.10024C15.8 7.86814 15.612 7.67993 15.38 7.67993C15.148 7.67993 14.96 7.86814 14.96 8.10024V8.24055H14.8278C14.2865 8.24055 13.8478 8.67975 13.8478 9.22147V9.5022C13.8478 10.0439 14.2865 10.4831 14.8278 10.4831H15.94C16.0173 10.4831 16.08 10.5459 16.08 10.6234V10.9033C16.08 10.9808 16.0173 11.0436 15.94 11.0436H14.6549C14.5927 10.8962 14.449 10.792 14.2806 10.7868C14.0487 10.7798 13.855 10.9622 13.848 11.1942L13.8402 11.4511C13.833 11.6881 14.023 11.8842 14.26 11.8842H14.96V12.0196C14.96 12.2517 15.148 12.4399 15.38 12.4399C15.612 12.4399 15.8 12.2517 15.8 12.0196V11.8842H15.94C16.4813 11.8842 16.92 11.445 16.92 10.9033V10.6234C16.92 10.0817 16.4813 9.6425 15.94 9.6425H14.8278C14.7505 9.6425 14.6878 9.57972 14.6878 9.5022V9.22147C14.6878 9.14394 14.7505 9.08116 14.8278 9.08116H16.1087C16.1817 9.20928 16.3193 9.29337 16.4737 9.29337C16.7057 9.29337 16.8937 9.10516 16.8937 8.87307V8.66085C16.8937 8.42876 16.7057 8.24055 16.4737 8.24055ZM7.95999 12.2999H8.09999V17.6199H7.95999C7.72803 17.6199 7.53999 17.808 7.53999 18.0399C7.53999 18.2719 7.72803 18.4599 7.95999 18.4599H8.51999C8.75195 18.4599 8.93999 18.2719 8.93999 18.0399V11.8799C8.93999 11.648 8.75195 11.4599 8.51999 11.4599H7.95999C7.72803 11.4599 7.53999 11.648 7.53999 11.8799C7.53999 12.1119 7.72803 12.2999 7.95999 12.2999Z" fill="#1565D8"/>
</svg>
